<?xml version="1.0" standalone="no"?>
<!DOCTYPE svg PUBLIC "-//W3C//DTD SVG 20010904//EN"
 "http://www.w3.org/TR/2001/REC-SVG-20010904/DTD/svg10.dtd">
<svg version="1.0" xmlns="http://www.w3.org/2000/svg"
 width="406.000000pt" height="246.000000pt" viewBox="0 0 406.000000 246.000000"
 preserveAspectRatio="xMidYMid meet">
<metadata>
Created by potrace 1.16, written by Peter Selinger 2001-2019
</metadata>
<g transform="translate(0.000000,246.000000) scale(0.100000,-0.100000)"
fill="#000000" stroke="none">
<path d="M2425 2165 c-249 -21 -325 -32 -348 -53 -30 -26 -47 -76 -47 -137 l0
-55 34 0 c56 0 205 -29 285 -56 155 -51 309 -172 360 -281 20 -44 30 -53 78
-73 30 -12 57 -20 60 -17 9 10 -26 106 -82 224 -30 63 -49 115 -44 119 5 3 24
3 42 -1 30 -6 29 -4 -18 26 -27 18 -75 44 -105 58 -54 26 -58 26 -250 23 -107
-2 -217 0 -244 4 l-48 6 5 40 c3 23 11 47 19 54 13 13 114 27 289 39 l96 7 7
-25 c3 -14 3 -40 0 -59 l-7 -33 40 38 c21 20 46 37 55 37 18 0 70 -18 153 -54
83 -36 37 -3 -78 56 l-92 47 85 0 c99 0 212 -18 307 -50 53 -17 79 -33 122
-76 63 -63 59 -78 -19 -77 -28 0 -49 0 -47 -1 1 -1 43 -20 93 -43 51 -22 127
-64 170 -93 44 -29 120 -77 169 -106 80 -47 87 -53 58 -53 -70 0 -76 -15 -41
-106 l22 -58 9 44 c12 59 22 70 68 70 31 0 42 -6 63 -33 61 -80 87 -191 105
-447 15 -200 25 -574 18 -594 -6 -15 -10 -15 -46 4 -52 26 -57 26 -98 -10 -36
-32 -63 -30 -77 7 -4 9 -11 128 -16 263 -21 574 -24 592 -30 170 -3 -212 -10
-393 -14 -402 -11 -25 -25 -22 -48 8 -31 39 -59 29 -80 -31 -31 -89 -83 -115
-230 -115 -60 0 -88 -4 -88 -12 0 -6 -3 -9 -6 -5 -15 15 21 75 75 126 48 47
60 65 71 109 14 61 9 140 -11 153 -8 5 -30 11 -49 14 -64 11 -118 36 -136 62
-18 29 -46 123 -36 123 4 0 30 -7 57 -15 28 -9 79 -17 115 -18 80 -2 122 20
150 78 25 53 26 75 0 75 -10 0 -44 9 -75 21 -39 15 -55 26 -55 39 0 24 -44 77
-79 95 -15 7 -43 16 -64 20 l-37 7 -1 -98 c-1 -130 -10 -190 -29 -185 -34 9
-70 13 -70 7 0 -3 5 -15 12 -25 17 -27 3 -51 -30 -51 -51 0 -60 23 -50 125 21
199 -15 415 -70 423 -19 3 -23 0 -18 -15 30 -103 40 -360 17 -468 -38 -183
-99 -313 -209 -443 -57 -67 -66 -60 -14 10 94 126 160 316 178 511 6 76 6 77
-17 77 -13 0 -48 3 -76 6 -35 5 -53 3 -53 -4 0 -6 30 -14 66 -17 44 -5 61 -11
53 -16 -8 -5 -38 -6 -66 -3 -64 8 -72 -10 -10 -22 l42 -8 -40 -3 c-22 -2 -45
-11 -52 -20 -9 -12 -30 -16 -80 -16 l-69 0 -25 -106 c-43 -178 -134 -336 -265
-461 -32 -30 -53 -48 -47 -40 6 8 41 55 77 103 76 103 117 184 151 304 24 83
51 221 43 227 -9 9 -248 16 -248 8 0 -11 81 -22 163 -22 35 0 57 -4 57 -11 0
-8 -34 -10 -112 -8 l-111 4 -18 -80 c-21 -100 -67 -220 -116 -305 -46 -78
-191 -226 -253 -258 -25 -13 -34 -15 -20 -6 14 10 59 52 100 94 418 425 330
1286 -155 1521 l-90 44 -115 -1 c-63 -1 -137 -2 -164 -4 l-49 -3 35 -31 c19
-17 59 -40 87 -51 120 -46 248 -172 316 -312 61 -126 88 -245 89 -403 1 -174
-3 -186 -60 -210 -55 -24 -82 -25 -112 -4 -21 14 -22 14 -22 -7 0 -46 -44
-187 -86 -278 -64 -137 -135 -230 -263 -343 l-53 -48 26 -10 c61 -23 160 -32
269 -25 156 10 356 7 837 -12 247 -10 626 -17 936 -18 l520 0 41 27 c30 20 50
45 75 95 l33 68 -2 200 c-4 350 -30 659 -65 775 -36 119 -115 213 -229 274
-30 16 -103 61 -162 99 -90 58 -115 81 -150 131 -91 135 -174 191 -335 226
-119 27 -275 32 -477 15z m-924 -211 c205 -60 378 -275 439 -547 19 -86 32
-242 25 -309 -7 -67 -8 -69 -49 -93 -26 -15 -59 -25 -82 -25 l-39 0 -24 -75
c-30 -95 -73 -186 -115 -246 -23 -31 -32 -54 -29 -70 6 -33 -27 -73 -99 -120
-61 -39 -195 -92 -263 -103 -37 -6 -35 -4 19 18 264 111 451 413 473 761 10
177 -21 336 -98 493 -61 123 -160 236 -260 295 l-64 37 56 0 c30 0 80 -7 110
-16z"/>
<path d="M705 2119 c-27 -6 -88 -28 -134 -50 -142 -69 -281 -226 -359 -404
-158 -364 -129 -821 72 -1123 86 -129 225 -243 341 -278 346 -105 686 154 809
616 139 518 -78 1090 -464 1220 -75 25 -192 34 -265 19z m215 -111 c211 -63
377 -290 435 -592 24 -120 21 -317 -5 -445 -41 -204 -111 -341 -235 -467 -127
-128 -261 -180 -398 -155 -232 44 -412 262 -483 587 -24 108 -24 348 0 459 95
437 391 701 686 613z"/>
<path d="M675 1882 c-157 -76 -279 -261 -331 -497 -23 -108 -23 -332 -1 -434
70 -314 273 -525 475 -495 l45 7 -54 20 c-82 30 -184 137 -237 247 -99 205
-114 469 -40 700 73 228 236 392 393 394 33 1 74 -2 90 -7 l30 -7 -30 25 c-58
49 -115 70 -200 73 -72 3 -86 0 -140 -26z"/>
<path d="M832 1660 c-88 -40 -180 -164 -224 -304 -14 -42 -21 -102 -25 -191
-5 -112 -2 -143 16 -215 28 -111 61 -178 122 -244 63 -69 117 -96 194 -96 72
0 124 24 184 82 213 211 229 669 31 891 -82 92 -198 122 -298 77z"/>
<path d="M3120 1607 c18 -26 53 -65 77 -88 24 -22 50 -56 58 -75 33 -79 61
-255 84 -534 8 -88 8 -83 10 86 1 194 -13 419 -30 471 -13 41 -89 110 -170
152 l-62 34 33 -46z"/>
</g>
</svg>
