<?xml version="1.0" standalone="no"?>
<!DOCTYPE svg PUBLIC "-//W3C//DTD SVG 20010904//EN"
 "http://www.w3.org/TR/2001/REC-SVG-20010904/DTD/svg10.dtd">
<svg version="1.0" xmlns="http://www.w3.org/2000/svg"
 width="527.000000pt" height="466.000000pt" viewBox="0 0 527.000000 466.000000"
 preserveAspectRatio="xMidYMid meet">
<metadata>
Created by potrace 1.16, written by Peter Selinger 2001-2019
</metadata>
<g transform="translate(0.000000,466.000000) scale(0.100000,-0.100000)"
fill="#000000" stroke="none">
<path d="M4455 4079 c-221 -22 -303 -32 -340 -41 -22 -5 -85 -36 -140 -68
-138 -81 -143 -82 -104 -27 18 26 30 50 26 54 -9 8 -260 -53 -297 -72 -14 -7
-54 -36 -89 -64 -35 -28 -65 -51 -67 -51 -2 0 10 21 27 48 22 35 26 48 16 50
-19 4 -338 -103 -413 -139 -65 -31 -119 -78 -227 -199 l-67 -75 40 90 c43 97
50 135 24 135 -20 0 -148 -51 -229 -92 -55 -27 -68 -39 -100 -94 -50 -84 -71
-101 -40 -31 13 31 21 58 16 61 -8 5 -356 -214 -424 -267 -29 -22 -54 -61
-101 -156 -34 -69 -73 -152 -86 -184 -40 -102 -31 -55 15 76 24 69 51 142 59
161 8 20 11 36 6 36 -19 0 -406 -266 -452 -310 -55 -54 -74 -108 -84 -242 -8
-100 -18 -98 -28 6 -7 74 -28 136 -46 136 -41 0 -133 -72 -266 -207 l-101
-103 -7 -76 c-3 -43 -6 -113 -7 -158 0 -95 -11 -80 -28 40 -7 43 -14 90 -17
104 l-6 25 -15 -29 c-23 -44 -51 -194 -64 -346 -11 -130 -10 -146 16 -327 l28
-191 -20 -29 c-12 -15 -44 -68 -73 -118 -96 -164 -142 -227 -161 -222 -10 3
-26 -4 -35 -15 -15 -16 -16 -22 -6 -39 12 -18 6 -29 -60 -105 -139 -162 -150
-177 -143 -198 18 -63 16 -113 -4 -171 -33 -92 -34 -95 -23 -95 5 0 49 62 96
138 60 96 84 144 80 158 -7 27 21 56 50 52 35 -5 33 -44 -4 -66 -19 -12 -60
-66 -112 -148 -44 -71 -82 -134 -85 -140 -5 -14 1229 -39 1947 -38 468 0 590
3 710 17 373 44 538 117 583 256 22 70 21 96 -7 156 -55 120 -217 195 -486
226 -324 37 -702 -57 -775 -193 -18 -35 -19 -38 -3 -72 22 -46 81 -82 176
-108 65 -18 105 -22 262 -22 306 0 519 53 508 127 -3 25 -86 63 -159 72 -39 5
-34 2 34 -24 92 -33 105 -44 88 -65 -27 -33 -294 -76 -469 -76 -204 0 -402 64
-402 130 0 44 113 108 259 148 88 24 113 26 301 26 166 1 220 -3 285 -18 267
-62 377 -164 320 -298 -48 -116 -249 -178 -675 -208 -187 -14 -914 -14 -1474
-1 -429 10 -723 3 -896 -23 -52 -8 -96 -13 -97 -12 -2 1 13 21 32 44 43 49 87
78 153 97 l49 15 65 152 c56 132 68 153 87 153 13 0 29 9 37 19 12 17 12 22
-2 37 -15 16 -14 21 11 53 15 19 24 40 20 46 -4 6 36 76 89 155 67 102 102
146 118 149 13 3 97 10 188 17 91 6 183 14 205 18 l40 7 -99 34 c-54 19 -93
36 -86 38 7 3 73 -1 145 -8 73 -6 148 -9 166 -5 19 4 72 26 117 48 80 39 92
49 262 231 206 219 205 205 6 186 -66 -6 -152 -13 -191 -15 l-70 -4 85 15
c229 41 395 76 419 89 30 15 102 85 160 154 l41 49 -171 7 c-93 4 -169 9 -167
10 2 2 77 8 168 14 91 7 180 14 198 17 23 3 71 38 162 116 l130 112 -62 26
-63 25 101 6 c75 4 109 10 130 24 40 25 224 177 252 208 l24 25 -24 8 c-12 4
-72 13 -133 19 l-110 12 130 2 c163 3 214 11 262 43 82 54 439 286 458 296 16
9 -3 11 -89 12 -60 0 -107 2 -105 5 3 2 69 11 148 20 87 9 158 22 184 33 41
18 377 240 407 268 12 12 11 14 -13 14 -15 0 -102 -9 -193 -20 -92 -12 -171
-19 -178 -16 -6 2 -4 5 5 5 45 3 399 62 429 72 19 7 96 53 170 102 l135 89
-60 -6 c-33 -4 -78 -9 -100 -11 -22 -3 11 6 73 20 115 25 171 51 279 129 43
32 57 51 47 67 -6 11 -316 10 -429 -2z m-336 -223 c-2 -2 -87 -34 -189 -71
-278 -101 -408 -154 -616 -251 -483 -225 -679 -351 -1134 -727 -171 -142 -664
-632 -831 -827 -189 -221 -373 -474 -513 -708 -37 -62 -48 -70 -75 -53 -18 12
6 53 197 336 121 179 270 367 417 525 371 398 501 527 710 700 648 536 1052
760 1850 1026 143 48 197 62 184 50z"/>
</g>
</svg>
