<svg id="Capa_1" enable-background="new 0 0 512 512" height="512" viewBox="0 0 512 512" width="512" xmlns="http://www.w3.org/2000/svg"><g><g><path d="m98.05 130.636-98.016 69.893 256 249.208v-319.101z" fill="#38bdf0"/><path d="m414.001 130.636h-157.967v319.101l255.932-249.208z" fill="#21a7f0"/></g><g><path d="m94.965 0v430.017h161.069l34.746-219.068-34.746-210.949z" fill="#e4f4fe"/><path d="m256.034 0h161.068v430.017h-161.068z" fill="#d3e7fd"/></g><g><g fill="none"><path d="m245.403 127.834c0 8.774 4.315 13.233 10.212 13.233.142 0 .279-.015.419-.02v-26.281c-.14-.005-.277-.02-.419-.02-5.897-.001-10.212 4.458-10.212 13.088z"/><path d="m265.396 99.212v-5.753h27.615v41.135c0 6.041 2.445 7.911 5.609 7.911 4.028 0 7.336-4.027 7.336-20.136 0-26.034-19.417-44.444-49.046-44.444-.295 0-.583.015-.876.019v15.387c3.738 1.146 6.862 3.123 9.362 5.881z"/><path d="m217.212 127.834c0-22.15 14.527-35.67 30.492-35.67 3.055 0 5.828.399 8.329 1.167v-15.387c-28.998.409-48.458 20.966-48.458 48.02 0 28.094 19.286 48.182 48.458 48.32v-11.726c-2.475.708-5.235 1.089-8.329 1.089-15.533.001-30.492-13.663-30.492-35.813z"/><path d="m265.971 127.834c0-8.422-4.251-12.859-9.937-13.068v26.281c5.686-.21 9.937-4.65 9.937-13.213z"/></g><path d="m207.575 125.964c0-27.054 19.46-47.611 48.458-48.02l13.939-9.674-13.939-8.593c-43.357.39-70.752 29.429-70.752 66.288 0 37.595 27.633 66.452 70.752 66.587l11.296-9.346-11.296-8.921c-29.171-.139-48.458-20.227-48.458-48.321z" fill="#fc612a"/><path d="m255.615 141.067c-5.897 0-10.212-4.459-10.212-13.233 0-8.63 4.315-13.088 10.212-13.088.142 0 .279.015.419.02l8.654-5.542-8.654-15.893c-2.501-.767-5.274-1.167-8.329-1.167-15.965 0-30.492 13.52-30.492 35.67s14.958 35.814 30.492 35.814c3.094 0 5.854-.381 8.329-1.089l8.654-11.06-8.654-10.452c-.14.005-.277.02-.419.02z" fill="#fc612a"/><path d="m169.649 230.519v29.959h86.385l23.846-14.851-23.846-15.108z" fill="#d3e7fd"/><path d="m169.649 320.399h86.385l20.874-14.331-20.874-15.628h-86.385z" fill="#d3e7fd"/></g><g><path d="m180.986 356.258-180.952-155.729v311.471l183.737-43.437z" fill="#74dbf2"/><path d="m331.08 356.257 28.066 115.278 152.82 40.465v-311.471z" fill="#38bdf0"/></g><g><path d="m180.986 356.258-180.952 155.742h256l32.764-38.483-32.764-52.65z" fill="#98f9fd"/><path d="m331.08 356.257-75.046 64.61v91.133h255.932z" fill="#74dbf2"/></g><path d="m256.034 230.519h85.683v29.959h-85.683z" fill="#b5d7fb"/><path d="m256.034 290.44h85.683v29.959h-85.683z" fill="#b5d7fb"/><g fill="#eb3d1d"><path d="m256.91 77.925c29.629 0 49.046 18.41 49.046 44.444 0 16.109-3.308 20.136-7.336 20.136-3.164 0-5.609-1.87-5.609-7.911v-41.135h-27.615v5.753c-2.499-2.758-5.623-4.735-9.362-5.881v21.435c5.686.209 9.937 4.646 9.937 13.068 0 8.563-4.251 13.004-9.937 13.213v21.512c6.269-1.794 10.646-5.753 13.533-11.424 4.027 8.343 11.938 12.514 22.725 12.514 18.41 0 33.8-14.239 33.8-41.711 0-34.52-27.759-62.279-69.182-62.279-.295 0-.582.016-.876.018v18.267c.293-.004.581-.019.876-.019z"/><path d="m291.429 185.654-6.041-17.691c-9.781 4.459-19.561 6.328-29.053 6.328-.101 0-.2-.006-.301-.006v18.267c.101 0 .199.006.301.006 12.8 0 26.464-2.733 35.094-6.904z"/></g></g></svg>