<?xml version="1.0" standalone="no"?>
<!DOCTYPE svg PUBLIC "-//W3C//DTD SVG 20010904//EN"
 "http://www.w3.org/TR/2001/REC-SVG-20010904/DTD/svg10.dtd">
<svg version="1.0" xmlns="http://www.w3.org/2000/svg"
 width="240.000000pt" height="240.000000pt" viewBox="0 0 240.000000 240.000000"
 preserveAspectRatio="xMidYMid meet">
<metadata>
Created by potrace 1.16, written by Peter Selinger 2001-2019
</metadata>
<g transform="translate(0.000000,240.000000) scale(0.100000,-0.100000)"
fill="#000000" stroke="none">
<path d="M1038 2004 c-316 -76 -451 -403 -431 -1040 5 -159 3 -198 -11 -246
-27 -93 -85 -155 -222 -234 -16 -9 -11 -14 41 -38 99 -47 229 -69 375 -63 185
9 280 39 365 118 57 52 80 111 72 184 -7 72 -34 124 -77 153 -32 21 -40 22
-140 16 -134 -8 -150 -2 -150 62 0 24 -7 56 -16 69 -9 13 -13 29 -9 35 4 6 2
17 -5 25 -8 10 -8 19 -1 34 17 31 13 46 -14 61 -40 21 -43 56 -8 93 59 64 58
61 58 206 0 106 4 148 18 189 10 28 22 52 26 52 4 0 13 -12 20 -27 27 -59 164
-253 239 -339 44 -50 124 -129 178 -175 243 -208 322 -299 408 -471 l53 -108
42 53 c340 417 220 1043 -250 1301 -170 93 -398 130 -561 90z"/>
</g>
</svg>
