<?xml version="1.0" standalone="no"?>
<!DOCTYPE svg PUBLIC "-//W3C//DTD SVG 20010904//EN"
 "http://www.w3.org/TR/2001/REC-SVG-20010904/DTD/svg10.dtd">
<svg version="1.0" xmlns="http://www.w3.org/2000/svg"
 width="619.000000pt" height="622.000000pt" viewBox="0 0 619.000000 622.000000"
 preserveAspectRatio="xMidYMid meet">
<metadata>
Created by potrace 1.16, written by Peter Selinger 2001-2019
</metadata>
<g transform="translate(0.000000,622.000000) scale(0.100000,-0.100000)"
fill="#000000" stroke="none">
<path d="M2594 6091 c-77 -35 -128 -126 -155 -277 -6 -32 -15 -81 -20 -109 -5
-27 -13 -122 -19 -210 -11 -185 -12 -183 73 -192 32 -3 57 -11 57 -16 0 -15
-85 -94 -138 -129 -78 -51 -87 -95 -103 -485 -14 -332 -12 -344 41 -367 l30
-12 -54 -55 c-48 -48 -55 -62 -70 -126 -27 -120 -15 -333 23 -398 40 -70 159
-97 242 -55 112 58 205 283 200 488 -1 32 -8 50 -27 69 -28 28 -34 28 -237 7
-51 -6 -57 -5 -51 10 9 24 67 51 149 69 102 23 153 28 160 17 10 -16 45 -12
45 5 0 32 -94 44 -216 26 -84 -12 -100 5 -34 39 31 16 59 20 128 20 60 0 93 4
99 13 15 19 92 244 109 322 23 97 29 237 14 291 -8 28 -25 56 -48 75 l-36 32
-105 -7 c-58 -3 -130 -9 -158 -12 -43 -5 -53 -4 -53 8 0 28 51 40 163 39 80 0
107 3 104 12 -4 14 -40 25 -89 26 -20 1 -40 6 -44 12 -20 33 100 40 167 9 24
-11 49 -20 55 -20 38 -1 111 188 140 359 20 121 15 310 -9 378 -19 56 -71 115
-125 142 -55 27 -150 28 -208 2z"/>
<path d="M3973 5720 c-56 -12 -132 -46 -162 -73 -77 -71 -177 -264 -235 -452
-21 -66 -60 -183 -87 -259 -27 -77 -49 -151 -49 -165 0 -14 -11 -36 -24 -50
-13 -15 -36 -49 -50 -76 -41 -81 -177 -486 -174 -520 3 -29 5 -30 73 -41 72
-10 95 -19 95 -33 0 -5 -10 -11 -22 -15 -19 -5 -21 -8 -8 -16 8 -5 26 -10 38
-10 14 0 22 -5 20 -12 -3 -8 -30 -15 -69 -18 -76 -6 -95 -16 -147 -75 -35 -39
-42 -56 -57 -136 -31 -158 -7 -315 57 -379 88 -89 278 31 381 241 25 52 49
114 53 138 7 42 6 43 -50 95 -31 29 -56 56 -56 59 0 14 32 7 69 -15 26 -15 45
-19 64 -14 34 8 101 93 149 188 38 77 132 393 121 411 -9 14 -137 71 -218 97
-134 42 -140 45 -140 65 0 16 8 21 40 23 22 2 48 11 58 20 22 20 146 19 191
-1 56 -26 136 -42 153 -31 10 6 25 48 38 105 12 51 44 148 70 214 123 315 165
446 165 523 0 141 -136 242 -287 212z"/>
<path d="M1262 5633 c-80 -39 -120 -143 -129 -334 -4 -89 -2 -132 6 -148 18
-33 70 -51 146 -51 36 0 65 -4 65 -9 0 -22 -37 -36 -101 -37 -38 -1 -69 -4
-69 -8 0 -3 0 -17 0 -31 0 -33 25 -42 60 -21 35 20 50 20 50 1 0 -8 -13 -21
-29 -29 -44 -23 -62 -81 -68 -226 -4 -80 -1 -146 6 -183 17 -79 83 -208 128
-247 34 -30 40 -32 87 -25 92 12 111 11 111 -5 0 -9 -22 -23 -59 -35 -84 -29
-88 -38 -71 -165 26 -192 67 -365 101 -432 18 -35 65 -59 119 -61 55 -2 110
38 145 109 24 47 25 58 25 219 0 187 -19 298 -72 413 -22 50 -26 72 -28 177
-3 140 -27 244 -98 421 l-45 111 -11 214 c-7 118 -16 231 -22 252 -20 74 -111
147 -184 147 -16 0 -45 -8 -63 -17z"/>
<path d="M5024 5051 c-123 -35 -169 -75 -297 -262 -87 -128 -160 -255 -187
-331 -13 -35 -36 -81 -50 -103 -36 -53 -60 -101 -60 -119 0 -9 19 -19 53 -27
77 -18 147 -53 147 -73 0 -10 -43 -6 -85 8 -49 18 -57 5 -21 -33 57 -59 24
-66 -84 -16 -71 32 -76 33 -93 17 -28 -25 -244 -337 -285 -410 -36 -66 -36
-68 0 -86 13 -7 23 -18 23 -26 0 -12 -13 -15 -58 -14 -56 1 -58 1 -64 -27 -3
-16 -11 -29 -18 -29 -32 0 -205 -247 -242 -344 -31 -82 -6 -164 62 -206 45
-28 138 -29 189 -3 45 23 144 103 219 175 59 57 60 58 55 105 -3 28 -16 66
-31 90 -15 24 -27 52 -27 64 0 11 -16 40 -36 64 -41 50 -38 70 9 59 32 -7 138
-75 189 -122 25 -23 30 -24 54 -12 75 41 225 238 270 357 17 43 17 44 -14 110
-17 37 -30 69 -28 70 9 9 38 -13 57 -43 12 -19 26 -33 33 -31 20 7 7 48 -30
93 -50 60 -39 73 24 30 29 -19 68 -38 86 -41 39 -8 54 10 91 108 31 82 140
320 161 352 9 14 27 28 40 31 47 12 145 156 192 284 30 80 34 189 10 235 -25
46 -79 93 -127 110 -51 18 -48 18 -127 -4z"/>
<path d="M1920 3424 c-200 -21 -238 -34 -342 -110 -37 -27 -99 -71 -139 -99
-100 -69 -164 -153 -238 -311 -33 -72 -61 -140 -61 -152 0 -13 -7 -39 -16 -60
-44 -102 -56 -157 -74 -327 -37 -345 -49 -451 -81 -665 -17 -118 -33 -235 -36
-259 -3 -24 0 -103 7 -174 10 -105 19 -143 43 -196 90 -200 247 -329 487 -400
161 -48 194 -50 266 -13 56 29 68 31 213 38 147 7 153 6 149 -12 -2 -11 -21
-27 -46 -38 -23 -11 -41 -26 -40 -33 4 -18 229 -142 246 -135 8 3 12 14 9 26
-2 12 -10 49 -17 83 -12 56 -12 72 8 174 18 90 34 136 79 226 63 128 106 193
128 193 26 0 17 -25 -39 -106 -76 -112 -109 -213 -110 -334 0 -117 17 -204 60
-295 41 -87 104 -150 204 -204 95 -51 195 -73 335 -75 92 -1 120 3 170 22 93
34 182 102 310 233 65 67 145 139 183 163 87 56 188 163 238 251 38 68 39 73
39 165 0 88 -3 101 -39 183 -30 68 -37 95 -33 123 9 51 54 145 87 179 16 17
38 50 49 75 16 38 18 53 10 89 -32 142 -128 210 -367 262 -75 16 -150 34 -167
40 -16 6 -66 17 -110 23 l-79 11 -16 42 c-25 67 -27 68 -127 50 -48 -9 -105
-19 -126 -23 -20 -3 -40 -11 -44 -17 -10 -17 44 -52 151 -98 56 -24 114 -52
129 -64 55 -39 150 -130 178 -172 27 -39 38 -83 21 -83 -4 0 -43 39 -86 87
-94 105 -175 162 -350 249 -121 61 -134 65 -176 58 -43 -6 -64 -7 -207 -4 -34
1 -90 -6 -125 -16 -67 -18 -374 -164 -417 -199 -55 -43 -61 -47 -61 -37 0 49
227 198 385 252 99 34 216 93 206 103 -5 5 -81 14 -168 19 -131 8 -174 15
-253 40 -103 33 -199 79 -226 109 -27 30 -10 33 33 6 55 -35 169 -83 239 -101
68 -18 184 -22 184 -6 0 13 -37 35 -85 50 -60 18 -68 32 -15 24 75 -11 362
-83 414 -104 41 -17 73 -20 205 -20 253 0 420 26 406 62 -22 57 -417 191 -715
244 -206 37 -261 45 -358 53 -56 5 -108 14 -115 19 -17 14 -194 58 -292 72
-94 14 -265 5 -265 -14 0 -20 87 -56 222 -90 71 -19 132 -36 135 -40 14 -13
-128 -5 -208 13 -107 24 -236 76 -271 109 -20 18 -28 36 -28 59 0 46 34 60
105 44 28 -6 69 -16 92 -21 23 -5 102 -14 175 -20 151 -13 250 -33 323 -65 28
-12 84 -25 125 -29 400 -37 640 -81 780 -143 30 -13 75 -31 100 -40 108 -37
239 -98 284 -134 27 -22 60 -42 73 -46 44 -10 129 5 208 38 143 59 238 182
251 326 12 126 -37 224 -182 364 -92 87 -119 107 -193 138 -66 28 -76 20 -60
-44 19 -77 -1 -73 -89 14 -83 83 -179 156 -252 191 -25 12 -53 34 -62 50 -10
17 -33 34 -63 46 -44 16 -57 17 -189 4 -77 -7 -187 -13 -242 -14 -101 -1 -102
-1 -155 35 -126 86 -205 112 -344 114 -60 1 -126 1 -145 -1z m148 -476 c-7
-30 -6 -64 2 -110 14 -81 8 -108 -25 -108 -34 0 -45 27 -45 110 0 70 8 98 38
133 28 32 41 21 30 -25z m504 -169 c3 -35 9 -85 13 -111 10 -66 1 -98 -30 -98
-36 0 -48 33 -49 135 -1 73 3 95 18 118 10 15 24 26 30 24 6 -2 14 -32 18 -68z
m700 -115 c-11 -27 -23 -71 -26 -99 -6 -46 -4 -57 33 -127 40 -76 50 -111 32
-122 -19 -12 -42 8 -71 62 -25 45 -31 70 -32 120 -2 64 -13 78 -39 46 -7 -8
-25 -22 -40 -30 -32 -16 -109 -19 -109 -4 0 6 8 10 19 10 45 0 239 163 242
203 0 9 2 9 5 1 3 -6 -4 -33 -14 -60z"/>
<path d="M5163 1571 c-75 -19 -171 -73 -206 -117 -9 -12 -33 -32 -52 -44 l-35
-22 -18 22 c-15 19 -22 21 -39 11 -12 -6 -31 -22 -42 -37 -26 -33 -60 -59 -88
-68 -20 -6 -23 -4 -23 18 0 44 -33 32 -79 -29 -47 -62 -52 -63 -172 -43 -105
17 -292 -4 -337 -39 -83 -63 -139 -198 -127 -310 12 -115 74 -144 186 -87 53
27 123 44 294 74 162 28 182 38 229 112 20 33 40 58 43 55 3 -3 -1 -53 -7
-112 -7 -58 -10 -108 -7 -112 4 -3 28 -2 54 4 30 6 138 6 293 -1 l245 -9 118
27 c190 44 305 113 361 216 53 97 43 225 -24 319 -47 64 -160 132 -271 164
-111 32 -191 34 -296 8z"/>
</g>
</svg>
