<?xml version="1.0" standalone="no"?>
<!DOCTYPE svg PUBLIC "-//W3C//DTD SVG 20010904//EN"
 "http://www.w3.org/TR/2001/REC-SVG-20010904/DTD/svg10.dtd">
<svg version="1.0" xmlns="http://www.w3.org/2000/svg"
 width="828.000000pt" height="610.000000pt" viewBox="0 0 828.000000 610.000000"
 preserveAspectRatio="xMidYMid meet">
<metadata>
Created by potrace 1.16, written by Peter Selinger 2001-2019
</metadata>
<g transform="translate(0.000000,610.000000) scale(0.100000,-0.100000)"
fill="#000000" stroke="none">
<path d="M4935 5733 c-603 -64 -1162 -322 -1602 -737 -99 -93 -245 -260 -318
-364 l-50 -71 -598 -1 c-656 0 -640 1 -672 -60 -19 -37 -19 -103 0 -140 31
-61 24 -60 591 -60 409 0 515 -3 511 -12 -3 -7 -30 -67 -61 -134 -30 -66 -75
-181 -100 -255 l-45 -134 -1138 0 -1138 0 -42 -22 c-53 -29 -73 -58 -73 -104
0 -48 27 -81 92 -110 l53 -24 565 -6 c311 -4 803 -7 1094 -8 l528 -1 -6 -42
c-19 -130 -26 -233 -26 -410 l0 -197 -732 -3 c-733 -3 -733 -3 -774 -25 -51
-27 -74 -61 -74 -111 0 -48 27 -85 81 -112 37 -19 61 -20 789 -20 l750 0 0
-25 c0 -43 76 -325 119 -443 23 -61 60 -150 81 -197 l39 -85 -505 0 c-432 0
-509 -2 -534 -15 -80 -41 -80 -189 0 -230 25 -13 110 -15 608 -15 l580 0 68
-96 c364 -514 907 -889 1516 -1049 264 -69 358 -80 693 -80 335 0 429 11 693
80 361 95 715 273 1012 511 109 87 317 295 404 404 238 297 416 651 511 1012
69 264 80 358 80 693 0 335 -11 429 -80 693 -95 361 -273 715 -511 1012 -87
109 -295 317 -404 404 -297 238 -652 416 -1012 511 -246 64 -352 77 -653 80
-148 2 -288 1 -310 -2z m660 -432 c317 -57 600 -168 860 -339 145 -94 218
-154 349 -281 197 -192 354 -407 465 -636 178 -366 250 -724 229 -1145 -30
-632 -342 -1238 -853 -1656 -172 -141 -430 -287 -650 -369 -493 -182 -1087
-182 -1580 0 -220 82 -477 227 -650 369 -79 64 -291 272 -306 298 -9 17 8 18
291 18 331 0 345 2 375 60 19 37 19 103 0 140 -31 59 -35 60 -474 60 l-399 0
-51 88 c-92 160 -174 363 -221 547 l-28 110 536 5 c529 5 538 5 578 27 51 27
74 61 74 111 0 48 -27 85 -81 112 -37 19 -61 20 -593 20 l-555 0 -3 98 c-5
179 10 396 37 519 l5 22 538 3 c534 3 537 3 579 25 53 29 73 58 73 104 0 48
-27 81 -92 110 l-53 24 -487 3 c-269 2 -488 5 -488 7 0 10 72 189 104 259 20
44 64 126 98 183 l61 103 384 0 c421 0 427 1 458 60 33 64 11 156 -45 185 -24
12 -79 15 -312 15 l-283 0 85 86 c405 411 943 656 1500 683 181 8 379 -2 525
-28z"/>
<path d="M4690 3040 c0 -814 3 -1480 7 -1480 12 0 2543 1473 2543 1480 0 7
-2531 1480 -2544 1480 -3 0 -6 -666 -6 -1480z m1218 540 c507 -294 922 -537
922 -540 0 -4 -1378 -807 -1892 -1103 l-48 -27 0 1130 0 1130 48 -27 c26 -16
463 -269 970 -563z"/>
</g>
</svg>
