<?xml version="1.0" standalone="no"?>
<!DOCTYPE svg PUBLIC "-//W3C//DTD SVG 20010904//EN"
 "http://www.w3.org/TR/2001/REC-SVG-20010904/DTD/svg10.dtd">
<svg version="1.0" xmlns="http://www.w3.org/2000/svg"
 width="216.000000pt" height="233.000000pt" viewBox="0 0 216.000000 233.000000"
 preserveAspectRatio="xMidYMid meet">
<metadata>
Created by potrace 1.16, written by Peter Selinger 2001-2019
</metadata>
<g transform="translate(0.000000,233.000000) scale(0.100000,-0.100000)"
fill="#000000" stroke="none">
<path d="M497 1812 c-15 -16 -17 -45 -17 -195 l0 -177 -158 0 c-140 0 -161 -2
-175 -18 -19 -20 -21 -78 -18 -477 1 -233 2 -241 22 -253 15 -10 78 -14 228
-16 133 -2 214 -7 228 -14 27 -15 227 -16 254 -2 10 6 19 17 19 25 0 13 80 15
577 17 569 3 578 3 581 23 4 19 3 19 -10 2 -12 -16 -49 -17 -578 -15 l-565 3
-3 38 -3 37 125 0 c90 0 126 3 129 13 4 9 6 9 6 0 2 -21 69 -16 74 4 4 17 5
17 6 1 1 -24 56 -24 70 0 10 16 10 16 11 0 0 -13 8 -18 30 -18 22 0 30 5 30
18 1 15 2 16 13 1 10 -13 33 -16 120 -17 l108 0 -20 32 -20 31 -151 2 c-111 1
-148 -2 -144 -10 5 -8 2 -7 -7 1 -7 6 -38 12 -70 12 -37 0 -59 -5 -62 -12 -4
-10 -6 -10 -6 0 -1 6 -11 12 -24 12 -13 0 -29 -6 -36 -12 -9 -8 -12 -9 -7 -1
4 8 -18 11 -80 11 -79 0 -105 5 -93 17 3 2 220 5 483 5 459 1 478 2 497 21 18
18 19 36 19 452 0 409 -1 435 -19 455 l-18 22 -665 0 c-631 0 -666 -1 -681
-18z m1323 -452 l0 -400 -470 0 -470 0 0 144 c0 168 -1 170 -88 168 -35 -1
-59 3 -64 11 -4 6 -8 38 -8 69 0 74 -18 88 -112 88 l-68 0 0 160 0 160 640 0
640 0 0 -400z m-1155 -45 c0 -35 -3 -40 -25 -43 -50 -7 -50 -8 -50 -268 l0
-244 -205 0 -205 0 0 293 c0 162 3 297 7 301 4 3 113 5 242 4 l236 -3 0 -40z
m195 -355 l0 -220 -125 0 -125 0 0 220 0 220 125 0 125 0 0 -220z"/>
</g>
</svg>
