<svg xmlns="http://www.w3.org/2000/svg" class="bottom-svg">
  <defs>
    <linearGradient id="myGradient" gradientTransform="rotate(90)">
      <stop offset="0%" stop-color="#f9247d" />
      <stop offset="100%" stop-color="#4b0081" />
    </linearGradient>
  </defs>
  <path
    fill="url('#myGradient')"
    d="M0,32L26.7,80C53.3,128,107,224,160,218.7C213.3,213,267,107,320,74.7C373.3,43,427,85,480,90.7C533.3,96,587,64,640,64C693.3,64,747,96,800,101.3C853.3,107,907,85,960,74.7C1013.3,64,1067,64,1120,80C1173.3,96,1227,128,1280,138.7C1333.3,149,1387,139,1413,133.3L1440,128L1440,320L1413.3,320C1386.7,320,1333,320,1280,320C1226.7,320,1173,320,1120,320C1066.7,320,1013,320,960,320C906.7,320,853,320,800,320C746.7,320,693,320,640,320C586.7,320,533,320,480,320C426.7,320,373,320,320,320C266.7,320,213,320,160,320C106.7,320,53,320,27,320L0,320Z"
  ></path>
</svg>